<svg xmlns="http://www.w3.org/2000/svg" xmlns:xlink="http://www.w3.org/1999/xlink" width="834" height="1111" viewBox="0 0 834 1111">
  <defs>
    <clipPath id="clip-forside_ipad">
      <rect width="834" height="1111"/>
    </clipPath>
  </defs>
  <g id="forside_ipad" clip-path="url(#clip-forside_ipad)">
    <rect width="834" height="1111" fill="#f1eddb"/>
    <path id="Union_5" data-name="Union 5" d="M0,32V0H562.076C580.842.084,596,7.215,596,16s-15.158,15.916-33.924,16H0Z" transform="translate(0 641)" fill="#395098"/>
    <g id="Group_11" data-name="Group 11" transform="translate(49.114 233)">
      <circle id="Ellipse_6" data-name="Ellipse 6" cx="4.5" cy="4.5" r="4.5" transform="translate(114.886)" fill="#363435"/>
      <circle id="Ellipse_95" data-name="Ellipse 95" cx="4.5" cy="4.5" r="4.5" transform="translate(114.886 77)" fill="#363435"/>
      <ellipse id="Ellipse_113" data-name="Ellipse 113" cx="4" cy="4.5" rx="4" ry="4.5" transform="translate(345.886)" fill="#363435"/>
      <ellipse id="Ellipse_131" data-name="Ellipse 131" cx="4" cy="4.5" rx="4" ry="4.5" transform="translate(345.886 77)" fill="#363435"/>
      <ellipse id="Ellipse_58" data-name="Ellipse 58" cx="4" cy="4.5" rx="4" ry="4.5" transform="translate(-0.114)" fill="#363435"/>
      <ellipse id="Ellipse_89" data-name="Ellipse 89" cx="4" cy="4.5" rx="4" ry="4.5" transform="translate(-0.114 77)" fill="#363435"/>
      <ellipse id="Ellipse_107" data-name="Ellipse 107" cx="4" cy="4.5" rx="4" ry="4.5" transform="translate(230.886)" fill="#363435"/>
      <ellipse id="Ellipse_125" data-name="Ellipse 125" cx="4" cy="4.5" rx="4" ry="4.5" transform="translate(230.886 77)" fill="#363435"/>
      <ellipse id="Ellipse_7" data-name="Ellipse 7" cx="4" cy="4.5" rx="4" ry="4.5" transform="translate(153.886)" fill="#363435"/>
      <ellipse id="Ellipse_97" data-name="Ellipse 97" cx="4" cy="4.5" rx="4" ry="4.5" transform="translate(153.886 77)" fill="#363435"/>
      <circle id="Ellipse_115" data-name="Ellipse 115" cx="4.5" cy="4.5" r="4.5" transform="translate(383.886)" fill="#363435"/>
      <circle id="Ellipse_132" data-name="Ellipse 132" cx="4.5" cy="4.5" r="4.5" transform="translate(383.886 77)" fill="#363435"/>
      <circle id="Ellipse_60" data-name="Ellipse 60" cx="4.5" cy="4.5" r="4.5" transform="translate(37.886)" fill="#363435"/>
      <circle id="Ellipse_90" data-name="Ellipse 90" cx="4.5" cy="4.5" r="4.5" transform="translate(37.886 77)" fill="#363435"/>
      <circle id="Ellipse_108" data-name="Ellipse 108" cx="4.5" cy="4.5" r="4.5" transform="translate(267.886)" fill="#363435"/>
      <circle id="Ellipse_126" data-name="Ellipse 126" cx="4.5" cy="4.5" r="4.5" transform="translate(267.886 77)" fill="#363435"/>
      <ellipse id="Ellipse_8" data-name="Ellipse 8" cx="4" cy="4.5" rx="4" ry="4.5" transform="translate(191.886)" fill="#363435"/>
      <ellipse id="Ellipse_99" data-name="Ellipse 99" cx="4" cy="4.5" rx="4" ry="4.5" transform="translate(191.886 77)" fill="#363435"/>
      <ellipse id="Ellipse_117" data-name="Ellipse 117" cx="4" cy="4.5" rx="4" ry="4.5" transform="translate(422.886)" fill="#363435"/>
      <ellipse id="Ellipse_140" data-name="Ellipse 140" cx="4" cy="4.5" rx="4" ry="4.5" transform="translate(422.886 77)" fill="#363435"/>
      <circle id="Ellipse_67" data-name="Ellipse 67" cx="4.5" cy="4.5" r="4.5" transform="translate(75.886)" fill="#363435"/>
      <circle id="Ellipse_91" data-name="Ellipse 91" cx="4.5" cy="4.5" r="4.5" transform="translate(75.886 77)" fill="#363435"/>
      <circle id="Ellipse_109" data-name="Ellipse 109" cx="4.5" cy="4.5" r="4.5" transform="translate(306.886)" fill="#363435"/>
      <circle id="Ellipse_127" data-name="Ellipse 127" cx="4.5" cy="4.5" r="4.5" transform="translate(306.886 77)" fill="#363435"/>
      <circle id="Ellipse_77" data-name="Ellipse 77" cx="4.5" cy="4.5" r="4.5" transform="translate(114.886 25)" fill="#363435"/>
      <ellipse id="Ellipse_96" data-name="Ellipse 96" cx="4.5" cy="4" rx="4.5" ry="4" transform="translate(114.886 103)" fill="#363435"/>
      <ellipse id="Ellipse_143" data-name="Ellipse 143" cx="4.5" cy="4" rx="4.5" ry="4" transform="translate(114.886 155)" fill="#363435"/>
      <ellipse id="Ellipse_114" data-name="Ellipse 114" cx="4" cy="4.5" rx="4" ry="4.5" transform="translate(345.886 25)" fill="#363435"/>
      <circle id="Ellipse_133" data-name="Ellipse 133" cx="4" cy="4" r="4" transform="translate(345.886 103)" fill="#363435"/>
      <circle id="Ellipse_152" data-name="Ellipse 152" cx="4" cy="4" r="4" transform="translate(345.886 155)" fill="#363435"/>
      <ellipse id="Ellipse_78" data-name="Ellipse 78" cx="4" cy="4.5" rx="4" ry="4.5" transform="translate(-0.114 25)" fill="#363435"/>
      <circle id="Ellipse_92" data-name="Ellipse 92" cx="4" cy="4" r="4" transform="translate(-0.114 103)" fill="#363435"/>
      <circle id="Ellipse_144" data-name="Ellipse 144" cx="4" cy="4" r="4" transform="translate(-0.114 155)" fill="#363435"/>
      <ellipse id="Ellipse_110" data-name="Ellipse 110" cx="4" cy="4.5" rx="4" ry="4.5" transform="translate(230.886 25)" fill="#363435"/>
      <circle id="Ellipse_128" data-name="Ellipse 128" cx="4" cy="4" r="4" transform="translate(230.886 103)" fill="#363435"/>
      <circle id="Ellipse_145" data-name="Ellipse 145" cx="4" cy="4" r="4" transform="translate(230.886 155)" fill="#363435"/>
      <ellipse id="Ellipse_79" data-name="Ellipse 79" cx="4" cy="4.5" rx="4" ry="4.5" transform="translate(153.886 25)" fill="#363435"/>
      <circle id="Ellipse_98" data-name="Ellipse 98" cx="4" cy="4" r="4" transform="translate(153.886 103)" fill="#363435"/>
      <circle id="Ellipse_146" data-name="Ellipse 146" cx="4" cy="4" r="4" transform="translate(153.886 155)" fill="#363435"/>
      <circle id="Ellipse_116" data-name="Ellipse 116" cx="4.5" cy="4.5" r="4.5" transform="translate(383.886 25)" fill="#363435"/>
      <ellipse id="Ellipse_134" data-name="Ellipse 134" cx="4.5" cy="4" rx="4.5" ry="4" transform="translate(383.886 103)" fill="#363435"/>
      <ellipse id="Ellipse_153" data-name="Ellipse 153" cx="4.5" cy="4" rx="4.5" ry="4" transform="translate(383.886 155)" fill="#363435"/>
      <circle id="Ellipse_80" data-name="Ellipse 80" cx="4.5" cy="4.5" r="4.5" transform="translate(37.886 25)" fill="#363435"/>
      <ellipse id="Ellipse_93" data-name="Ellipse 93" cx="4.5" cy="4" rx="4.5" ry="4" transform="translate(37.886 103)" fill="#363435"/>
      <ellipse id="Ellipse_147" data-name="Ellipse 147" cx="4.5" cy="4" rx="4.5" ry="4" transform="translate(37.886 155)" fill="#363435"/>
      <circle id="Ellipse_111" data-name="Ellipse 111" cx="4.5" cy="4.5" r="4.5" transform="translate(267.886 25)" fill="#363435"/>
      <ellipse id="Ellipse_129" data-name="Ellipse 129" cx="4.5" cy="4" rx="4.5" ry="4" transform="translate(267.886 103)" fill="#363435"/>
      <ellipse id="Ellipse_148" data-name="Ellipse 148" cx="4.5" cy="4" rx="4.5" ry="4" transform="translate(267.886 155)" fill="#363435"/>
      <ellipse id="Ellipse_81" data-name="Ellipse 81" cx="4" cy="4.5" rx="4" ry="4.5" transform="translate(191.886 25)" fill="#363435"/>
      <circle id="Ellipse_100" data-name="Ellipse 100" cx="4" cy="4" r="4" transform="translate(191.886 103)" fill="#363435"/>
      <circle id="Ellipse_149" data-name="Ellipse 149" cx="4" cy="4" r="4" transform="translate(191.886 155)" fill="#363435"/>
      <ellipse id="Ellipse_118" data-name="Ellipse 118" cx="4" cy="4.5" rx="4" ry="4.5" transform="translate(422.886 25)" fill="#363435"/>
      <circle id="Ellipse_141" data-name="Ellipse 141" cx="4" cy="4" r="4" transform="translate(422.886 103)" fill="#363435"/>
      <circle id="Ellipse_154" data-name="Ellipse 154" cx="4" cy="4" r="4" transform="translate(422.886 155)" fill="#363435"/>
      <circle id="Ellipse_82" data-name="Ellipse 82" cx="4.5" cy="4.5" r="4.5" transform="translate(75.886 25)" fill="#363435"/>
      <ellipse id="Ellipse_94" data-name="Ellipse 94" cx="4.5" cy="4" rx="4.5" ry="4" transform="translate(75.886 103)" fill="#363435"/>
      <ellipse id="Ellipse_150" data-name="Ellipse 150" cx="4.5" cy="4" rx="4.5" ry="4" transform="translate(75.886 155)" fill="#363435"/>
      <circle id="Ellipse_112" data-name="Ellipse 112" cx="4.5" cy="4.5" r="4.5" transform="translate(306.886 25)" fill="#363435"/>
      <ellipse id="Ellipse_130" data-name="Ellipse 130" cx="4.5" cy="4" rx="4.5" ry="4" transform="translate(306.886 103)" fill="#363435"/>
      <ellipse id="Ellipse_151" data-name="Ellipse 151" cx="4.5" cy="4" rx="4.5" ry="4" transform="translate(306.886 155)" fill="#363435"/>
      <circle id="Ellipse_83" data-name="Ellipse 83" cx="4.5" cy="4.5" r="4.5" transform="translate(114.886 52)" fill="#363435"/>
      <circle id="Ellipse_101" data-name="Ellipse 101" cx="4.5" cy="4.5" r="4.5" transform="translate(114.886 129)" fill="#363435"/>
      <ellipse id="Ellipse_155" data-name="Ellipse 155" cx="4.5" cy="4" rx="4.5" ry="4" transform="translate(114.886 181)" fill="#363435"/>
      <ellipse id="Ellipse_119" data-name="Ellipse 119" cx="4" cy="4.5" rx="4" ry="4.5" transform="translate(345.886 52)" fill="#363435"/>
      <ellipse id="Ellipse_135" data-name="Ellipse 135" cx="4" cy="4.5" rx="4" ry="4.5" transform="translate(345.886 129)" fill="#363435"/>
      <circle id="Ellipse_156" data-name="Ellipse 156" cx="4" cy="4" r="4" transform="translate(345.886 181)" fill="#363435"/>
      <ellipse id="Ellipse_84" data-name="Ellipse 84" cx="4" cy="4.5" rx="4" ry="4.5" transform="translate(-0.114 52)" fill="#363435"/>
      <ellipse id="Ellipse_102" data-name="Ellipse 102" cx="4" cy="4.5" rx="4" ry="4.5" transform="translate(-0.114 129)" fill="#363435"/>
      <circle id="Ellipse_157" data-name="Ellipse 157" cx="4" cy="4" r="4" transform="translate(-0.114 181)" fill="#363435"/>
      <ellipse id="Ellipse_120" data-name="Ellipse 120" cx="4" cy="4.5" rx="4" ry="4.5" transform="translate(230.886 52)" fill="#363435"/>
      <ellipse id="Ellipse_136" data-name="Ellipse 136" cx="4" cy="4.5" rx="4" ry="4.5" transform="translate(230.886 129)" fill="#363435"/>
      <circle id="Ellipse_158" data-name="Ellipse 158" cx="4" cy="4" r="4" transform="translate(230.886 181)" fill="#363435"/>
      <ellipse id="Ellipse_85" data-name="Ellipse 85" cx="4" cy="4.5" rx="4" ry="4.5" transform="translate(153.886 52)" fill="#363435"/>
      <ellipse id="Ellipse_103" data-name="Ellipse 103" cx="4" cy="4.5" rx="4" ry="4.5" transform="translate(153.886 129)" fill="#363435"/>
      <circle id="Ellipse_159" data-name="Ellipse 159" cx="4" cy="4" r="4" transform="translate(153.886 181)" fill="#363435"/>
      <circle id="Ellipse_121" data-name="Ellipse 121" cx="4.5" cy="4.5" r="4.5" transform="translate(383.886 52)" fill="#363435"/>
      <circle id="Ellipse_137" data-name="Ellipse 137" cx="4.5" cy="4.5" r="4.5" transform="translate(383.886 129)" fill="#363435"/>
      <ellipse id="Ellipse_160" data-name="Ellipse 160" cx="4.5" cy="4" rx="4.5" ry="4" transform="translate(383.886 181)" fill="#363435"/>
      <circle id="Ellipse_86" data-name="Ellipse 86" cx="4.5" cy="4.5" r="4.5" transform="translate(37.886 52)" fill="#363435"/>
      <circle id="Ellipse_104" data-name="Ellipse 104" cx="4.5" cy="4.5" r="4.5" transform="translate(37.886 129)" fill="#363435"/>
      <ellipse id="Ellipse_161" data-name="Ellipse 161" cx="4.5" cy="4" rx="4.5" ry="4" transform="translate(37.886 181)" fill="#363435"/>
      <circle id="Ellipse_122" data-name="Ellipse 122" cx="4.5" cy="4.5" r="4.5" transform="translate(267.886 52)" fill="#363435"/>
      <circle id="Ellipse_138" data-name="Ellipse 138" cx="4.5" cy="4.5" r="4.5" transform="translate(267.886 129)" fill="#363435"/>
      <ellipse id="Ellipse_162" data-name="Ellipse 162" cx="4.5" cy="4" rx="4.5" ry="4" transform="translate(267.886 181)" fill="#363435"/>
      <ellipse id="Ellipse_87" data-name="Ellipse 87" cx="4" cy="4.5" rx="4" ry="4.5" transform="translate(191.886 52)" fill="#363435"/>
      <ellipse id="Ellipse_105" data-name="Ellipse 105" cx="4" cy="4.5" rx="4" ry="4.5" transform="translate(191.886 129)" fill="#363435"/>
      <circle id="Ellipse_163" data-name="Ellipse 163" cx="4" cy="4" r="4" transform="translate(191.886 181)" fill="#363435"/>
      <ellipse id="Ellipse_123" data-name="Ellipse 123" cx="4" cy="4.5" rx="4" ry="4.5" transform="translate(422.886 52)" fill="#363435"/>
      <ellipse id="Ellipse_142" data-name="Ellipse 142" cx="4" cy="4.5" rx="4" ry="4.5" transform="translate(422.886 129)" fill="#363435"/>
      <circle id="Ellipse_164" data-name="Ellipse 164" cx="4" cy="4" r="4" transform="translate(422.886 181)" fill="#363435"/>
      <circle id="Ellipse_88" data-name="Ellipse 88" cx="4.5" cy="4.5" r="4.5" transform="translate(75.886 52)" fill="#363435"/>
      <circle id="Ellipse_106" data-name="Ellipse 106" cx="4.5" cy="4.5" r="4.5" transform="translate(75.886 129)" fill="#363435"/>
      <ellipse id="Ellipse_165" data-name="Ellipse 165" cx="4.5" cy="4" rx="4.5" ry="4" transform="translate(75.886 181)" fill="#363435"/>
      <circle id="Ellipse_124" data-name="Ellipse 124" cx="4.5" cy="4.5" r="4.5" transform="translate(306.886 52)" fill="#363435"/>
      <circle id="Ellipse_139" data-name="Ellipse 139" cx="4.5" cy="4.5" r="4.5" transform="translate(306.886 129)" fill="#363435"/>
      <ellipse id="Ellipse_166" data-name="Ellipse 166" cx="4.5" cy="4" rx="4.5" ry="4" transform="translate(306.886 181)" fill="#363435"/>
    </g>
    <path id="Polygon_3" data-name="Polygon 3" d="M210.071,0,420.143,351.845H0Z" transform="translate(655.54 584.091) rotate(31)" fill="#f2d5d5"/>
    <g id="Group_5" data-name="Group 5" transform="translate(492.039 992.391) rotate(-60)">
      <g id="Group_3" data-name="Group 3" transform="translate(0 219.358) rotate(-90)">
        <line id="Line_215" data-name="Line 215" x1="33.495" y2="37.435" transform="translate(0 0)" fill="none" stroke="#000" stroke-linecap="round" stroke-width="2.5"/>
        <line id="Line_216" data-name="Line 216" x1="33.495" y2="37.435" transform="translate(38.092 0)" fill="none" stroke="#000" stroke-linecap="round" stroke-width="2.5"/>
        <line id="Line_217" data-name="Line 217" x1="33.495" y2="37.435" transform="translate(76.184 0)" fill="none" stroke="#000" stroke-linecap="round" stroke-width="2.5"/>
      </g>
      <g id="Group_4" data-name="Group 4" transform="translate(0 109.679) rotate(-90)">
        <line id="Line_215-2" data-name="Line 215" x1="33.495" y2="37.435" transform="translate(0 0)" fill="none" stroke="#000" stroke-linecap="round" stroke-width="2.5"/>
        <line id="Line_216-2" data-name="Line 216" x1="33.495" y2="37.435" transform="translate(38.092 0)" fill="none" stroke="#000" stroke-linecap="round" stroke-width="2.5"/>
        <line id="Line_217-2" data-name="Line 217" x1="33.495" y2="37.435" transform="translate(76.184 0)" fill="none" stroke="#000" stroke-linecap="round" stroke-width="2.5"/>
      </g>
    </g>
  </g>
</svg>
