<svg xmlns="http://www.w3.org/2000/svg" xmlns:xlink="http://www.w3.org/1999/xlink" width="375" height="653" viewBox="0 0 375 653">
  <defs>
    <clipPath id="clip-forside_mobil">
      <rect width="375" height="653"/>
    </clipPath>
  </defs>
  <g id="forside_mobil" clip-path="url(#clip-forside_mobil)">
    <rect width="375" height="653" fill="#f1eddb"/>
    <path id="Union_5" data-name="Union 5" d="M0,17V0H298.956C308.938.045,317,3.833,317,8.5s-8.062,8.455-18.044,8.5H0Z" transform="translate(0 252)" fill="#395098"/>
    <g id="Group_11" data-name="Group 11" transform="translate(26.164 35)">
      <circle id="Ellipse_6" data-name="Ellipse 6" cx="2" cy="2" r="2" transform="translate(60.836)" fill="#363435"/>
      <ellipse id="Ellipse_95" data-name="Ellipse 95" cx="2" cy="2.5" rx="2" ry="2.5" transform="translate(60.836 41)" fill="#363435"/>
      <ellipse id="Ellipse_113" data-name="Ellipse 113" cx="2.5" cy="2" rx="2.5" ry="2" transform="translate(182.836)" fill="#363435"/>
      <circle id="Ellipse_131" data-name="Ellipse 131" cx="2.5" cy="2.5" r="2.5" transform="translate(182.836 41)" fill="#363435"/>
      <circle id="Ellipse_58" data-name="Ellipse 58" cx="2" cy="2" r="2" transform="translate(-0.164)" fill="#363435"/>
      <ellipse id="Ellipse_89" data-name="Ellipse 89" cx="2" cy="2.5" rx="2" ry="2.5" transform="translate(-0.164 41)" fill="#363435"/>
      <circle id="Ellipse_107" data-name="Ellipse 107" cx="2" cy="2" r="2" transform="translate(122.836)" fill="#363435"/>
      <ellipse id="Ellipse_125" data-name="Ellipse 125" cx="2" cy="2.5" rx="2" ry="2.5" transform="translate(122.836 41)" fill="#363435"/>
      <ellipse id="Ellipse_7" data-name="Ellipse 7" cx="2.5" cy="2" rx="2.5" ry="2" transform="translate(80.836)" fill="#363435"/>
      <circle id="Ellipse_97" data-name="Ellipse 97" cx="2.5" cy="2.5" r="2.5" transform="translate(80.836 41)" fill="#363435"/>
      <ellipse id="Ellipse_115" data-name="Ellipse 115" cx="2.5" cy="2" rx="2.5" ry="2" transform="translate(203.836)" fill="#363435"/>
      <circle id="Ellipse_132" data-name="Ellipse 132" cx="2.5" cy="2.5" r="2.5" transform="translate(203.836 41)" fill="#363435"/>
      <ellipse id="Ellipse_60" data-name="Ellipse 60" cx="2.5" cy="2" rx="2.5" ry="2" transform="translate(19.836)" fill="#363435"/>
      <circle id="Ellipse_90" data-name="Ellipse 90" cx="2.5" cy="2.5" r="2.5" transform="translate(19.836 41)" fill="#363435"/>
      <circle id="Ellipse_108" data-name="Ellipse 108" cx="2" cy="2" r="2" transform="translate(142.836)" fill="#363435"/>
      <ellipse id="Ellipse_126" data-name="Ellipse 126" cx="2" cy="2.5" rx="2" ry="2.5" transform="translate(142.836 41)" fill="#363435"/>
      <ellipse id="Ellipse_8" data-name="Ellipse 8" cx="2.5" cy="2" rx="2.5" ry="2" transform="translate(101.836)" fill="#363435"/>
      <circle id="Ellipse_99" data-name="Ellipse 99" cx="2.5" cy="2.5" r="2.5" transform="translate(101.836 41)" fill="#363435"/>
      <circle id="Ellipse_117" data-name="Ellipse 117" cx="2" cy="2" r="2" transform="translate(224.836)" fill="#363435"/>
      <ellipse id="Ellipse_140" data-name="Ellipse 140" cx="2" cy="2.5" rx="2" ry="2.5" transform="translate(224.836 41)" fill="#363435"/>
      <circle id="Ellipse_67" data-name="Ellipse 67" cx="2" cy="2" r="2" transform="translate(40.836)" fill="#363435"/>
      <ellipse id="Ellipse_91" data-name="Ellipse 91" cx="2" cy="2.5" rx="2" ry="2.5" transform="translate(40.836 41)" fill="#363435"/>
      <circle id="Ellipse_109" data-name="Ellipse 109" cx="2" cy="2" r="2" transform="translate(162.836)" fill="#363435"/>
      <ellipse id="Ellipse_127" data-name="Ellipse 127" cx="2" cy="2.5" rx="2" ry="2.5" transform="translate(162.836 41)" fill="#363435"/>
      <ellipse id="Ellipse_77" data-name="Ellipse 77" cx="2" cy="2.5" rx="2" ry="2.5" transform="translate(60.836 14)" fill="#363435"/>
      <circle id="Ellipse_96" data-name="Ellipse 96" cx="2" cy="2" r="2" transform="translate(60.836 55)" fill="#363435"/>
      <circle id="Ellipse_143" data-name="Ellipse 143" cx="2" cy="2" r="2" transform="translate(60.836 83)" fill="#363435"/>
      <circle id="Ellipse_114" data-name="Ellipse 114" cx="2.5" cy="2.5" r="2.5" transform="translate(182.836 14)" fill="#363435"/>
      <ellipse id="Ellipse_133" data-name="Ellipse 133" cx="2.5" cy="2" rx="2.5" ry="2" transform="translate(182.836 55)" fill="#363435"/>
      <ellipse id="Ellipse_152" data-name="Ellipse 152" cx="2.5" cy="2" rx="2.5" ry="2" transform="translate(182.836 83)" fill="#363435"/>
      <ellipse id="Ellipse_78" data-name="Ellipse 78" cx="2" cy="2.5" rx="2" ry="2.5" transform="translate(-0.164 14)" fill="#363435"/>
      <circle id="Ellipse_92" data-name="Ellipse 92" cx="2" cy="2" r="2" transform="translate(-0.164 55)" fill="#363435"/>
      <circle id="Ellipse_144" data-name="Ellipse 144" cx="2" cy="2" r="2" transform="translate(-0.164 83)" fill="#363435"/>
      <ellipse id="Ellipse_110" data-name="Ellipse 110" cx="2" cy="2.5" rx="2" ry="2.5" transform="translate(122.836 14)" fill="#363435"/>
      <circle id="Ellipse_128" data-name="Ellipse 128" cx="2" cy="2" r="2" transform="translate(122.836 55)" fill="#363435"/>
      <circle id="Ellipse_145" data-name="Ellipse 145" cx="2" cy="2" r="2" transform="translate(122.836 83)" fill="#363435"/>
      <circle id="Ellipse_79" data-name="Ellipse 79" cx="2.5" cy="2.5" r="2.5" transform="translate(80.836 14)" fill="#363435"/>
      <ellipse id="Ellipse_98" data-name="Ellipse 98" cx="2.5" cy="2" rx="2.5" ry="2" transform="translate(80.836 55)" fill="#363435"/>
      <ellipse id="Ellipse_146" data-name="Ellipse 146" cx="2.5" cy="2" rx="2.5" ry="2" transform="translate(80.836 83)" fill="#363435"/>
      <circle id="Ellipse_116" data-name="Ellipse 116" cx="2.5" cy="2.5" r="2.5" transform="translate(203.836 14)" fill="#363435"/>
      <ellipse id="Ellipse_134" data-name="Ellipse 134" cx="2.5" cy="2" rx="2.5" ry="2" transform="translate(203.836 55)" fill="#363435"/>
      <ellipse id="Ellipse_153" data-name="Ellipse 153" cx="2.5" cy="2" rx="2.5" ry="2" transform="translate(203.836 83)" fill="#363435"/>
      <circle id="Ellipse_80" data-name="Ellipse 80" cx="2.5" cy="2.5" r="2.5" transform="translate(19.836 14)" fill="#363435"/>
      <ellipse id="Ellipse_93" data-name="Ellipse 93" cx="2.5" cy="2" rx="2.5" ry="2" transform="translate(19.836 55)" fill="#363435"/>
      <ellipse id="Ellipse_147" data-name="Ellipse 147" cx="2.5" cy="2" rx="2.5" ry="2" transform="translate(19.836 83)" fill="#363435"/>
      <ellipse id="Ellipse_111" data-name="Ellipse 111" cx="2" cy="2.5" rx="2" ry="2.5" transform="translate(142.836 14)" fill="#363435"/>
      <circle id="Ellipse_129" data-name="Ellipse 129" cx="2" cy="2" r="2" transform="translate(142.836 55)" fill="#363435"/>
      <circle id="Ellipse_148" data-name="Ellipse 148" cx="2" cy="2" r="2" transform="translate(142.836 83)" fill="#363435"/>
      <circle id="Ellipse_81" data-name="Ellipse 81" cx="2.5" cy="2.5" r="2.5" transform="translate(101.836 14)" fill="#363435"/>
      <ellipse id="Ellipse_100" data-name="Ellipse 100" cx="2.5" cy="2" rx="2.5" ry="2" transform="translate(101.836 55)" fill="#363435"/>
      <ellipse id="Ellipse_149" data-name="Ellipse 149" cx="2.5" cy="2" rx="2.5" ry="2" transform="translate(101.836 83)" fill="#363435"/>
      <ellipse id="Ellipse_118" data-name="Ellipse 118" cx="2" cy="2.5" rx="2" ry="2.5" transform="translate(224.836 14)" fill="#363435"/>
      <circle id="Ellipse_141" data-name="Ellipse 141" cx="2" cy="2" r="2" transform="translate(224.836 55)" fill="#363435"/>
      <circle id="Ellipse_154" data-name="Ellipse 154" cx="2" cy="2" r="2" transform="translate(224.836 83)" fill="#363435"/>
      <ellipse id="Ellipse_82" data-name="Ellipse 82" cx="2" cy="2.5" rx="2" ry="2.5" transform="translate(40.836 14)" fill="#363435"/>
      <circle id="Ellipse_94" data-name="Ellipse 94" cx="2" cy="2" r="2" transform="translate(40.836 55)" fill="#363435"/>
      <circle id="Ellipse_150" data-name="Ellipse 150" cx="2" cy="2" r="2" transform="translate(40.836 83)" fill="#363435"/>
      <ellipse id="Ellipse_112" data-name="Ellipse 112" cx="2" cy="2.5" rx="2" ry="2.5" transform="translate(162.836 14)" fill="#363435"/>
      <circle id="Ellipse_130" data-name="Ellipse 130" cx="2" cy="2" r="2" transform="translate(162.836 55)" fill="#363435"/>
      <circle id="Ellipse_151" data-name="Ellipse 151" cx="2" cy="2" r="2" transform="translate(162.836 83)" fill="#363435"/>
      <circle id="Ellipse_83" data-name="Ellipse 83" cx="2" cy="2" r="2" transform="translate(60.836 28)" fill="#363435"/>
      <ellipse id="Ellipse_101" data-name="Ellipse 101" cx="2" cy="2.5" rx="2" ry="2.5" transform="translate(60.836 68)" fill="#363435"/>
      <circle id="Ellipse_155" data-name="Ellipse 155" cx="2" cy="2" r="2" transform="translate(60.836 96)" fill="#363435"/>
      <ellipse id="Ellipse_119" data-name="Ellipse 119" cx="2.5" cy="2" rx="2.5" ry="2" transform="translate(182.836 28)" fill="#363435"/>
      <circle id="Ellipse_135" data-name="Ellipse 135" cx="2.5" cy="2.5" r="2.5" transform="translate(182.836 68)" fill="#363435"/>
      <ellipse id="Ellipse_156" data-name="Ellipse 156" cx="2.5" cy="2" rx="2.5" ry="2" transform="translate(182.836 96)" fill="#363435"/>
      <circle id="Ellipse_84" data-name="Ellipse 84" cx="2" cy="2" r="2" transform="translate(-0.164 28)" fill="#363435"/>
      <ellipse id="Ellipse_102" data-name="Ellipse 102" cx="2" cy="2.5" rx="2" ry="2.5" transform="translate(-0.164 68)" fill="#363435"/>
      <circle id="Ellipse_157" data-name="Ellipse 157" cx="2" cy="2" r="2" transform="translate(-0.164 96)" fill="#363435"/>
      <circle id="Ellipse_120" data-name="Ellipse 120" cx="2" cy="2" r="2" transform="translate(122.836 28)" fill="#363435"/>
      <ellipse id="Ellipse_136" data-name="Ellipse 136" cx="2" cy="2.5" rx="2" ry="2.5" transform="translate(122.836 68)" fill="#363435"/>
      <circle id="Ellipse_158" data-name="Ellipse 158" cx="2" cy="2" r="2" transform="translate(122.836 96)" fill="#363435"/>
      <ellipse id="Ellipse_85" data-name="Ellipse 85" cx="2.5" cy="2" rx="2.5" ry="2" transform="translate(80.836 28)" fill="#363435"/>
      <circle id="Ellipse_103" data-name="Ellipse 103" cx="2.5" cy="2.5" r="2.5" transform="translate(80.836 68)" fill="#363435"/>
      <ellipse id="Ellipse_159" data-name="Ellipse 159" cx="2.5" cy="2" rx="2.5" ry="2" transform="translate(80.836 96)" fill="#363435"/>
      <ellipse id="Ellipse_121" data-name="Ellipse 121" cx="2.5" cy="2" rx="2.5" ry="2" transform="translate(203.836 28)" fill="#363435"/>
      <circle id="Ellipse_137" data-name="Ellipse 137" cx="2.5" cy="2.5" r="2.5" transform="translate(203.836 68)" fill="#363435"/>
      <ellipse id="Ellipse_160" data-name="Ellipse 160" cx="2.5" cy="2" rx="2.5" ry="2" transform="translate(203.836 96)" fill="#363435"/>
      <ellipse id="Ellipse_86" data-name="Ellipse 86" cx="2.5" cy="2" rx="2.5" ry="2" transform="translate(19.836 28)" fill="#363435"/>
      <circle id="Ellipse_104" data-name="Ellipse 104" cx="2.5" cy="2.5" r="2.5" transform="translate(19.836 68)" fill="#363435"/>
      <ellipse id="Ellipse_161" data-name="Ellipse 161" cx="2.5" cy="2" rx="2.5" ry="2" transform="translate(19.836 96)" fill="#363435"/>
      <circle id="Ellipse_122" data-name="Ellipse 122" cx="2" cy="2" r="2" transform="translate(142.836 28)" fill="#363435"/>
      <ellipse id="Ellipse_138" data-name="Ellipse 138" cx="2" cy="2.5" rx="2" ry="2.5" transform="translate(142.836 68)" fill="#363435"/>
      <circle id="Ellipse_162" data-name="Ellipse 162" cx="2" cy="2" r="2" transform="translate(142.836 96)" fill="#363435"/>
      <ellipse id="Ellipse_87" data-name="Ellipse 87" cx="2.5" cy="2" rx="2.5" ry="2" transform="translate(101.836 28)" fill="#363435"/>
      <circle id="Ellipse_105" data-name="Ellipse 105" cx="2.5" cy="2.5" r="2.5" transform="translate(101.836 68)" fill="#363435"/>
      <ellipse id="Ellipse_163" data-name="Ellipse 163" cx="2.5" cy="2" rx="2.5" ry="2" transform="translate(101.836 96)" fill="#363435"/>
      <circle id="Ellipse_123" data-name="Ellipse 123" cx="2" cy="2" r="2" transform="translate(224.836 28)" fill="#363435"/>
      <ellipse id="Ellipse_142" data-name="Ellipse 142" cx="2" cy="2.5" rx="2" ry="2.5" transform="translate(224.836 68)" fill="#363435"/>
      <circle id="Ellipse_164" data-name="Ellipse 164" cx="2" cy="2" r="2" transform="translate(224.836 96)" fill="#363435"/>
      <circle id="Ellipse_88" data-name="Ellipse 88" cx="2" cy="2" r="2" transform="translate(40.836 28)" fill="#363435"/>
      <ellipse id="Ellipse_106" data-name="Ellipse 106" cx="2" cy="2.5" rx="2" ry="2.5" transform="translate(40.836 68)" fill="#363435"/>
      <circle id="Ellipse_165" data-name="Ellipse 165" cx="2" cy="2" r="2" transform="translate(40.836 96)" fill="#363435"/>
      <circle id="Ellipse_124" data-name="Ellipse 124" cx="2" cy="2" r="2" transform="translate(162.836 28)" fill="#363435"/>
      <ellipse id="Ellipse_139" data-name="Ellipse 139" cx="2" cy="2.5" rx="2" ry="2.5" transform="translate(162.836 68)" fill="#363435"/>
      <circle id="Ellipse_166" data-name="Ellipse 166" cx="2" cy="2" r="2" transform="translate(162.836 96)" fill="#363435"/>
    </g>
    <path id="Path_6" data-name="Path 6" d="M119.089,2.479,242.329,208.833,4.152,203.875Z" transform="translate(274.396 298.313) rotate(31)" fill="#f2d5d5"/>
    <g id="Group_5" data-name="Group 5" transform="translate(182.866 540.727) rotate(-60)">
      <g id="Group_3" data-name="Group 3" transform="translate(0 122.798) rotate(-90)">
        <line id="Line_215" data-name="Line 215" x1="18.751" y2="20.957" transform="translate(0 0)" fill="none" stroke="#000" stroke-linecap="round" stroke-width="2.5"/>
        <line id="Line_216" data-name="Line 216" x1="18.751" y2="20.957" transform="translate(21.324 0)" fill="none" stroke="#000" stroke-linecap="round" stroke-width="2.5"/>
        <line id="Line_217" data-name="Line 217" x1="18.751" y2="20.957" transform="translate(42.649 0)" fill="none" stroke="#000" stroke-linecap="round" stroke-width="2.5"/>
      </g>
      <g id="Group_4" data-name="Group 4" transform="translate(0 61.399) rotate(-90)">
        <line id="Line_215-2" data-name="Line 215" x1="18.751" y2="20.957" transform="translate(0 0)" fill="none" stroke="#000" stroke-linecap="round" stroke-width="2.5"/>
        <line id="Line_216-2" data-name="Line 216" x1="18.751" y2="20.957" transform="translate(21.324 0)" fill="none" stroke="#000" stroke-linecap="round" stroke-width="2.5"/>
        <line id="Line_217-2" data-name="Line 217" x1="18.751" y2="20.957" transform="translate(42.649 0)" fill="none" stroke="#000" stroke-linecap="round" stroke-width="2.5"/>
      </g>
    </g>
  </g>
</svg>
