<svg id="Layer_1" data-name="Layer 1" xmlns="http://www.w3.org/2000/svg" width="30mm" height="40mm" viewBox="0 0 85.04 113.39"><defs><style>.cls-1{fill:#c681b6;}</style></defs><path class="cls-1" d="M33.51,63.73,26.6,18.39C25.13,8.8,26.3,7.22,36.27,4.93l-.36-2.36L.16,8l.36,2.36c10.22-.66,11.81-.27,13.35,9.82L22.53,77c.95,6.22.58,8.83-3.28,9.42-2.49.38-3-2-4.7-4.89-1.9-3.28-4-4.74-6.9-4.3-3.36.51-5.61,4.16-5.11,7.4.89,5.86,6.47,8.19,13.94,7C29.69,89.68,36.11,80.8,33.51,63.73Z"/><path class="cls-1" d="M49.18,25.77l-.38,2.37c9.93,2.5,11.32,3.36,9.69,13.44L49.32,98.3c-1,6.22-2.16,8.59-6,8-2.49-.4-2.23-2.78-3-6.09C39.53,96.46,38,94.42,35.09,94c-3.36-.55-6.62,2.24-7.14,5.48-.95,5.84,3.65,9.78,11.11,11,13.19,2.13,22-4.36,24.78-21.4l7.32-45.28C72.71,34.18,74.3,33,84.5,33.91l.38-2.36Z"/></svg>