<svg id="Layer_1" data-name="Layer 1" xmlns="http://www.w3.org/2000/svg" width="9.11" height="18.4" viewBox="0 0 9.11 18.4"><defs><style>.cls-1{fill:#1d1d1b;}</style></defs><path class="cls-1" d="M2.91,8.71V3.09H.49V2H4.13V8.88a2,2,0,0,1-.61,1.55,2,2,0,0,1-.93.5,5.8,5.8,0,0,1-1.28.12H.46V9.91h1C2.44,9.91,2.91,9.51,2.91,8.71Z"/><path class="cls-1" d="M7.05,12.94V7.32H4.63V6.18H8.27v6.93a2.06,2.06,0,0,1-.61,1.54,2,2,0,0,1-.94.51,5.76,5.76,0,0,1-1.27.12H4.59V14.13h1C6.57,14.13,7.05,13.73,7.05,12.94Z"/></svg>