<svg xmlns="http://www.w3.org/2000/svg" xmlns:xlink="http://www.w3.org/1999/xlink" width="1920" height="1132" viewBox="0 0 1920 1132">
  <defs>
    <clipPath id="clip-tema_forside">
      <rect width="1920" height="1132"/>
    </clipPath>
  </defs>
  <g id="tema_forside" clip-path="url(#clip-tema_forside)">
    <rect width="1920" height="1132" fill="#faf8ed"/>
    <line id="Line_2" data-name="Line 2" y2="1134.039" transform="translate(1701.317 -2.039)" fill="none" stroke="#000" stroke-width="1.5"/>
    <line id="Line_3" data-name="Line 3" y2="1134.039" transform="translate(1482.495 -2.039)" fill="none" stroke="#000" stroke-width="1.5"/>
    <path id="Path_5" data-name="Path 5" d="M0,0S20.576,352.331,348.421,212.966" transform="matrix(0.839, -0.545, 0.545, 0.839, 1701.319, 423.756)" fill="none" stroke="#000" stroke-width="1.5"/>
    <path id="Polygon_1" data-name="Polygon 1" d="M134.733,0,269.466,218.823H0Z" transform="translate(1920.646 779.528) rotate(90)" fill="#0069be"/>
    <path id="Path_12" data-name="Path 12" d="M113.664,2.031l117.15,193.054L3.486,191.023Z" transform="translate(1865.005 -101.674) rotate(60)" fill="#fbb800"/>
    <rect id="Rectangle_5" data-name="Rectangle 5" width="118" height="123" transform="translate(1483 72)" fill="#363435"/>
    <path id="Union_3" data-name="Union 3" d="M400.929,290.071,0,0,400.929,290.071,0,584.9Z" transform="translate(1701.822 624.099)" fill="none" stroke="#000" stroke-width="1.5"/>
    <ellipse id="Ellipse_2" data-name="Ellipse 2" cx="107.5" cy="111" rx="107.5" ry="111" transform="translate(1486 795)" fill="#fbb800"/>
    <g id="Group_1" data-name="Group 1" transform="translate(1498.65 366.205)">
      <line id="Line_6" data-name="Line 6" x2="30.629" transform="translate(0 0)" fill="none" stroke="#000" stroke-linecap="round" stroke-width="3"/>
      <line id="Line_7" data-name="Line 7" x2="30.629" transform="translate(0 27.561)" fill="none" stroke="#000" stroke-linecap="round" stroke-width="1"/>
      <line id="Line_8" data-name="Line 8" x2="30.629" transform="translate(0 55.121)" fill="none" stroke="#000" stroke-linecap="round" stroke-width="1"/>
      <line id="Line_13" data-name="Line 13" x2="30.629" transform="translate(0 137.804)" fill="none" stroke="#000" stroke-linecap="round" stroke-width="1"/>
      <line id="Line_9" data-name="Line 9" x2="30.629" transform="translate(0 82.682)" fill="none" stroke="#000" stroke-linecap="round" stroke-width="1"/>
      <line id="Line_12" data-name="Line 12" x2="30.629" transform="translate(0 165.365)" fill="none" stroke="#000" stroke-linecap="round" stroke-width="1"/>
      <line id="Line_10" data-name="Line 10" x2="30.629" transform="translate(0 110.243)" fill="none" stroke="#000" stroke-linecap="round" stroke-width="1"/>
      <line id="Line_11" data-name="Line 11" x2="30.629" transform="translate(0 192.925)" fill="none" stroke="#000" stroke-linecap="round" stroke-width="1"/>
    </g>
  </g>
</svg>
